<?xml version="1.0" encoding="UTF-8"?>
<!DOCTYPE svg PUBLIC "-//W3C//DTD SVG 1.1//EN" "http://www.w3.org/Graphics/SVG/1.1/DTD/svg11.dtd">
<!-- Creator: CorelDRAW -->
<svg xmlns="http://www.w3.org/2000/svg" xml:space="preserve" width="5.0802mm" height="5.0802mm" version="1.1" style="shape-rendering:geometricPrecision; text-rendering:geometricPrecision; image-rendering:optimizeQuality; fill-rule:evenodd; clip-rule:evenodd"
viewBox="0 0 8.38 8.38"
 xmlns:xlink="http://www.w3.org/1999/xlink"
 xmlns:xodm="http://www.corel.com/coreldraw/odm/2003">
 <defs>
  <style type="text/css">
   <![CDATA[
    .fil0 {fill:#FEFEFE}
    .fil2 {fill:#2B2A29;fill-rule:nonzero}
    .fil1 {fill:#E31E24;fill-rule:nonzero}
   ]]>
  </style>
 </defs>
 <g id="Слой_x0020_1">
  <metadata id="CorelCorpID_0Corel-Layer"/>
  <rect class="fil0" x="0" y="0" width="8.38" height="8.38"/>
  <g id="_1488343163728">
   <path class="fil1" d="M4.2 3.65c-0.25,-0 -0.44,0.21 -0.44,0.44 -0,0.25 0.2,0.45 0.44,0.45 0.23,0 0.44,-0.19 0.44,-0.44 0,-0.25 -0.19,-0.46 -0.44,-0.45zm0.77 0.43c0,0.09 -0.01,0.17 -0.04,0.25 -0.04,0.13 -0.11,0.25 -0.2,0.35 -0.07,0.07 -0.13,0.14 -0.21,0.21 -0.08,0.08 -0.16,0.15 -0.24,0.22 -0.01,0.01 -0.01,0.01 -0.02,0.02 -0.04,0.03 -0.08,0.03 -0.12,0 -0.15,-0.12 -0.3,-0.24 -0.42,-0.39 -0.09,-0.11 -0.17,-0.23 -0.23,-0.36 -0.19,-0.44 0.09,-0.92 0.53,-1.02 0.43,-0.09 0.84,0.18 0.92,0.6 0.01,0.04 0.01,0.09 0.02,0.12z"/>
   <path class="fil2" d="M2.99 3.21c-0.02,0.04 -0.02,0.07 -0.01,0.11 0,0.03 0.02,0.05 0.04,0.07 0.02,0.01 0.04,0.03 0.06,0.04 0.1,0.05 0.2,0.1 0.3,0.15 0.02,0.01 0.03,0.02 0.05,0.03 -0.02,0.07 -0.05,0.13 -0.08,0.2 -0.01,0.03 -0.04,0.04 -0.07,0.04 -0.05,-0 -0.09,-0.01 -0.14,-0.02 -0.13,-0.02 -0.25,-0.04 -0.38,-0.06 -0.02,-0 -0.05,-0.01 -0.07,-0.01 -0.07,-0.02 -0.15,-0.01 -0.22,-0.01 -0.01,0 -0.03,-0 -0.05,-0 -0.01,-0.08 0,-0.16 -0.01,-0.24 -0.01,-0 -0.12,-0.01 -0.17,-0.01 -0.02,-0 -0.04,-0 -0.07,-0 0.02,-0.05 0.06,-0.09 0.1,-0.11 0.04,-0.01 0.08,-0.02 0.12,-0.03 0.03,-0.01 0.06,-0.01 0.09,-0.02 0.01,-0.04 0.01,-0.08 0,-0.12 -0.05,-0 -0.1,-0 -0.15,-0 -0.05,-0 -0.1,0 -0.15,-0 -0,-0.02 -0,-0.02 0.01,-0.03 0.04,-0.01 0.07,-0.02 0.11,-0.02 0.09,-0.02 0.19,-0.04 0.28,-0.06 0.04,-0.01 0.07,-0.03 0.07,-0.07 0,-0.01 0,-0.03 0,-0.04 0,-0.02 -0,-0.05 0,-0.07 0,-0.05 0.04,-0.08 0.09,-0.06 0.03,0.01 0.04,0.03 0.03,0.06 -0,0.02 -0,0.05 -0,0.07 0,0.03 0,0.06 0,0.09 0.02,0.02 0.04,0.01 0.06,0.01 0.19,0 0.38,0 0.57,0l0.06 0c0.01,0.02 0.01,0.04 -0.01,0.05 -0.04,0.02 -0.07,0.04 -0.12,0.05 -0.04,0.01 -0.09,0.01 -0.13,0.01 -0.06,0 -0.12,-0 -0.18,0 -0.02,0 -0.05,0 -0.07,0z"/>
   <path class="fil2" d="M5.42 3.2c0.02,0.04 0.02,0.07 0.01,0.11 -0,0.03 -0.02,0.05 -0.04,0.07 -0.02,0.01 -0.04,0.03 -0.06,0.04 -0.1,0.05 -0.2,0.1 -0.3,0.15 -0.02,0.01 -0.03,0.02 -0.05,0.03 0.02,0.07 0.05,0.13 0.08,0.2 0.01,0.03 0.04,0.04 0.07,0.04 0.05,-0 0.09,-0.01 0.14,-0.02 0.13,-0.02 0.25,-0.04 0.38,-0.06 0.02,-0 0.05,-0.01 0.07,-0.01 0.07,-0.02 0.15,-0.01 0.22,-0.01 0.01,0 0.03,-0 0.05,-0 0.01,-0.08 -0,-0.16 0.01,-0.24 0.01,-0 0.12,-0.01 0.17,-0.01 0.02,-0 0.04,-0 0.07,-0 -0.02,-0.05 -0.06,-0.09 -0.1,-0.11 -0.04,-0.01 -0.08,-0.02 -0.12,-0.03 -0.03,-0.01 -0.06,-0.01 -0.09,-0.02 -0.01,-0.04 -0.01,-0.08 -0,-0.12 0.05,-0 0.1,-0 0.15,-0 0.05,-0 0.1,0 0.15,-0 0,-0.02 0,-0.02 -0.01,-0.03 -0.04,-0.01 -0.07,-0.02 -0.11,-0.02 -0.09,-0.02 -0.19,-0.04 -0.28,-0.06 -0.04,-0.01 -0.07,-0.03 -0.07,-0.07 -0,-0.01 -0,-0.03 -0,-0.04 -0,-0.02 0,-0.05 -0,-0.07 -0,-0.05 -0.04,-0.08 -0.09,-0.06 -0.03,0.01 -0.04,0.03 -0.03,0.06 0,0.02 0,0.05 0,0.07 -0,0.03 -0,0.06 -0,0.09 -0.02,0.02 -0.04,0.01 -0.06,0.01 -0.19,0 -0.38,0 -0.57,0l-0.06 0c-0.01,0.02 -0.01,0.04 0.01,0.05 0.04,0.02 0.07,0.04 0.12,0.05 0.04,0.01 0.09,0.01 0.13,0.01 0.06,0 0.12,-0 0.18,0 0.02,0 0.05,0 0.07,0z"/>
   <path class="fil2" d="M6.49 3.53c0.07,0.01 0.15,-0 0.22,0.01 0.01,0.05 0.04,0.38 0,0.47 -0.01,0.03 -0.01,0.07 -0.15,0.11 -0.08,0.03 -0.16,0.01 -0.24,0.01 -0.04,-0 -0.08,-0.01 -0.12,-0.02 -0.08,-0.01 -0.14,-0.08 -0.14,-0.17 -0,-0.06 -0,-0.12 -0,-0.18 0,-0.06 0,-0.12 0,-0.18 0,-0.01 0,-0.02 0,-0.03 0.07,-0.01 0.15,0 0.22,-0.01 0,-0.02 0,-0.03 0,-0.05 0,-0.07 -0,-0.14 0,-0.21 0,-0.02 0,-0.04 0.01,-0.06 0.01,-0.04 0.04,-0.06 0.08,-0.07 0.01,-0 0.02,-0 0.03,0 0.04,0 0.05,0.02 0.06,0.05 0.01,0.02 0.01,0.05 0.01,0.07 0.01,0.08 0.01,0.16 0.01,0.25 0,0.01 0,0.02 0,0.03z"/>
   <path class="fil2" d="M1.72 4.02c-0,-0.16 -0,-0.32 -0,-0.48 0.02,-0 0.03,-0.01 0.04,-0.01 0.04,-0 0.08,-0 0.13,-0 0.01,-0 0.03,-0 0.04,-0 0.01,-0.03 0.01,-0.05 0.01,-0.08 0,-0.07 0.01,-0.15 0.01,-0.22 0,-0.01 0,-0.03 0,-0.04 0.01,-0.05 0.05,-0.07 0.09,-0.05 0.04,0.02 0.09,0.06 0.08,0.11 -0,0.07 0,0.13 0,0.2 0,0.02 0,0.05 0,0.08 0.08,0.01 0.15,-0 0.23,0.01 0,0.01 0.01,0.02 0.01,0.04 0,0.11 0,0.21 0,0.32 -0,0.03 -0.01,0.07 -0.01,0.1 -0.21,0.21 -0.45,0.17 -0.65,0.04z"/>
   <path class="fil2" d="M5.4 5.37l0.02 -0.01c0.02,-0.01 0.03,-0.03 0.02,-0.05 -0.01,-0.04 -0.04,-0.07 -0.05,-0.11 -0.02,-0.05 -0.05,-0.09 -0.07,-0.14 -0.02,-0.05 -0.05,-0.09 -0.07,-0.14 -0.02,-0.04 -0.04,-0.08 -0.06,-0.12 -0.01,-0.02 -0,-0.04 0.02,-0.05 0,0 0,0 0,-0 0.01,-0.01 0.03,-0.01 0.04,-0.02 0.02,-0.01 0.03,-0.03 0.02,-0.05 -0,-0 -0,-0.01 -0,-0.01 -0.03,-0.06 -0.06,-0.12 -0.09,-0.18 -0.03,-0.07 -0.07,-0.13 -0.1,-0.2 -0.01,-0.03 -0.02,-0.06 -0.03,-0.09 -0,-0.01 -0,-0.02 -0,-0.03 0.04,0.01 0.06,0.04 0.08,0.06 0.04,0.05 0.08,0.1 0.11,0.16 0.08,0.12 0.14,0.25 0.2,0.38 0.07,0.17 0.14,0.33 0.18,0.51 0.01,0.05 0.02,0.1 0.02,0.16 0,0.01 0,0.02 0,0.03 -0,0.02 -0.01,0.03 -0.03,0.03 -0.01,0 -0.02,0.01 -0.04,0.01 -0.04,0 -0.08,0 -0.13,0 -0.03,0 -0.05,-0.02 -0.06,-0.05 -0.01,-0.03 -0.01,-0.05 -0.02,-0.08 -0,-0.02 0.01,-0.03 0.02,-0.04z"/>
   <path class="fil2" d="M3.33 4.23c0,0.07 0,0.12 -0.02,0.17 -0.05,0.09 -0.09,0.18 -0.14,0.27 -0.01,0.02 -0.02,0.04 -0.03,0.06 -0,0 0,0 0,0l0.11 0.04c0,0 0,0 0,0 -0.04,0.1 -0.09,0.19 -0.14,0.28 -0.04,0.09 -0.09,0.18 -0.14,0.28 -0,0 0,0 0,0l0.09 0.03c0,0 0,0 0,0 -0.01,0.05 -0.02,0.1 -0.04,0.15 -0,0 -0,0 -0,0 -0.05,0.01 -0.17,0.01 -0.23,0 -0,0 -0,-0 -0,-0 -0.01,-0.06 -0.01,-0.12 0,-0.18 0.05,-0.17 0.11,-0.33 0.18,-0.5 0.08,-0.19 0.18,-0.38 0.29,-0.56 0.01,-0.01 0.01,-0.03 0.03,-0.04l0.04 -0.04z"/>
   <path class="fil2" d="M6.69 3.22c0.19,-0.03 0.37,-0.04 0.56,-0.04 0.19,0 0.38,0.01 0.56,0.04 -0.19,0.03 -0.37,0.04 -0.56,0.04 -0.19,-0 -0.38,-0.01 -0.56,-0.04z"/>
   <path class="fil2" d="M5.92 2.91c0.19,-0.03 0.37,-0.04 0.56,-0.04 0.19,0 0.38,0.01 0.56,0.04 -0.19,0.03 -0.37,0.04 -0.56,0.04 -0.19,-0 -0.38,-0.01 -0.56,-0.04z"/>
   <path class="fil2" d="M4.31 2.88c0.19,-0.03 0.37,-0.04 0.56,-0.04 0.19,0 0.38,0.01 0.56,0.04 -0.19,0.03 -0.37,0.04 -0.56,0.04 -0.19,-0 -0.38,-0.01 -0.56,-0.04z"/>
   <path class="fil2" d="M2.91 2.88c0.19,-0.03 0.37,-0.04 0.56,-0.04 0.19,0 0.38,0.01 0.56,0.04 -0.19,0.03 -0.37,0.04 -0.56,0.04 -0.19,-0 -0.38,-0.01 -0.56,-0.04z"/>
   <path class="fil2" d="M1.44 2.88c0.19,-0.03 0.37,-0.04 0.56,-0.04 0.19,0 0.38,0.01 0.56,0.04 -0.19,0.03 -0.37,0.04 -0.56,0.04 -0.19,-0 -0.38,-0.01 -0.56,-0.04z"/>
   <path class="fil2" d="M0.56 3.21c0.19,-0.03 0.37,-0.04 0.56,-0.04 0.19,0 0.38,0.01 0.56,0.04 -0.19,0.03 -0.37,0.04 -0.56,0.04 -0.19,-0 -0.38,-0.01 -0.56,-0.04z"/>
  </g>
 </g>
</svg>
