<?xml version="1.0" encoding="UTF-8"?>
<!DOCTYPE svg PUBLIC "-//W3C//DTD SVG 1.1//EN" "http://www.w3.org/Graphics/SVG/1.1/DTD/svg11.dtd">
<!-- Creator: CorelDRAW -->
<svg xmlns="http://www.w3.org/2000/svg" xml:space="preserve" width="8.4668mm" height="8.4668mm" version="1.1" style="shape-rendering:geometricPrecision; text-rendering:geometricPrecision; image-rendering:optimizeQuality; fill-rule:evenodd; clip-rule:evenodd"
viewBox="0 0 21.79 21.79"
 xmlns:xlink="http://www.w3.org/1999/xlink"
 xmlns:xodm="http://www.corel.com/coreldraw/odm/2003">
 <defs>
  <style type="text/css">
   <![CDATA[
    .fil0 {fill:none}
    .fil2 {fill:#2B2A29;fill-rule:nonzero}
    .fil1 {fill:#E31E24;fill-rule:nonzero}
   ]]>
  </style>
 </defs>
 <g id="Слой_x0020_1">
  <metadata id="CorelCorpID_0Corel-Layer"/>
  <rect class="fil0" x="0" y="0" width="21.79" height="21.79"/>
  <g id="_1488333642752">
   <path class="fil1" d="M10.94 9.47c-0.67,-0.01 -1.17,0.54 -1.17,1.17 -0,0.66 0.52,1.18 1.16,1.18 0.61,0 1.17,-0.5 1.17,-1.16 0,-0.65 -0.49,-1.21 -1.16,-1.2zm2.02 1.15c0,0.25 -0.03,0.45 -0.1,0.66 -0.11,0.35 -0.29,0.66 -0.54,0.93 -0.17,0.19 -0.36,0.38 -0.54,0.56 -0.21,0.2 -0.42,0.39 -0.64,0.59 -0.02,0.01 -0.03,0.03 -0.05,0.04 -0.11,0.08 -0.21,0.09 -0.32,0.01 -0.4,-0.31 -0.78,-0.64 -1.11,-1.03 -0.24,-0.29 -0.44,-0.61 -0.59,-0.96 -0.5,-1.15 0.25,-2.44 1.4,-2.69 1.14,-0.25 2.22,0.49 2.44,1.59 0.02,0.11 0.03,0.23 0.05,0.31z"/>
   <path class="fil2" d="M7.72 8.32c-0.05,0.1 -0.04,0.2 -0.02,0.29 0.01,0.07 0.05,0.13 0.12,0.18 0.06,0.04 0.11,0.07 0.17,0.1 0.27,0.13 0.54,0.27 0.8,0.4 0.04,0.02 0.09,0.05 0.13,0.08 -0.07,0.18 -0.14,0.36 -0.22,0.52 -0.04,0.07 -0.1,0.11 -0.18,0.1 -0.12,-0.01 -0.24,-0.03 -0.36,-0.05 -0.33,-0.05 -0.67,-0.1 -1,-0.16 -0.07,-0.01 -0.13,-0.02 -0.2,-0.03 -0.19,-0.04 -0.39,-0.03 -0.58,-0.03 -0.04,0 -0.08,-0 -0.12,-0 -0.03,-0.21 0,-0.41 -0.02,-0.63 -0.03,-0.01 -0.32,-0.02 -0.44,-0.02 -0.05,-0 -0.11,-0 -0.18,-0.01 0.06,-0.14 0.15,-0.23 0.28,-0.28 0.1,-0.04 0.21,-0.06 0.32,-0.09 0.07,-0.02 0.15,-0.03 0.23,-0.05 0.03,-0.1 0.03,-0.2 0,-0.32 -0.14,-0 -0.27,-0 -0.4,-0 -0.13,-0 -0.26,0 -0.39,-0 -0.01,-0.04 -0.01,-0.06 0.02,-0.07 0.1,-0.02 0.19,-0.04 0.29,-0.06 0.25,-0.06 0.5,-0.11 0.74,-0.17 0.1,-0.02 0.17,-0.07 0.19,-0.18 0.01,-0.03 0,-0.07 0,-0.1 0,-0.06 -0,-0.13 0,-0.19 0.01,-0.13 0.12,-0.2 0.24,-0.15 0.07,0.03 0.09,0.09 0.09,0.16 -0,0.06 -0,0.13 -0,0.19 0,0.07 0,0.17 0,0.24 0.05,0.05 0.1,0.03 0.15,0.03 0.5,0 1,0 1.5,0l0.16 0c0.04,0.06 0.02,0.1 -0.02,0.13 -0.09,0.06 -0.2,0.11 -0.31,0.12 -0.11,0.02 -0.23,0.03 -0.35,0.03 -0.15,0.01 -0.31,-0 -0.47,0 -0.07,0 -0.13,0.01 -0.19,0.01z"/>
   <path class="fil2" d="M14.15 8.28c0.05,0.1 0.04,0.2 0.02,0.29 -0.01,0.07 -0.05,0.13 -0.12,0.18 -0.06,0.04 -0.11,0.07 -0.17,0.1 -0.27,0.13 -0.54,0.27 -0.8,0.4 -0.04,0.02 -0.09,0.05 -0.13,0.08 0.07,0.18 0.14,0.36 0.22,0.52 0.04,0.07 0.1,0.11 0.18,0.1 0.12,-0.01 0.24,-0.03 0.36,-0.05 0.33,-0.05 0.67,-0.1 1,-0.16 0.07,-0.01 0.13,-0.02 0.2,-0.03 0.19,-0.04 0.39,-0.03 0.58,-0.03 0.04,0 0.08,-0 0.12,-0 0.03,-0.21 -0,-0.41 0.02,-0.63 0.03,-0.01 0.32,-0.02 0.44,-0.02 0.05,-0 0.11,-0 0.18,-0.01 -0.06,-0.14 -0.15,-0.23 -0.28,-0.28 -0.1,-0.04 -0.21,-0.06 -0.32,-0.09 -0.07,-0.02 -0.15,-0.03 -0.23,-0.05 -0.03,-0.1 -0.03,-0.2 -0,-0.32 0.14,-0 0.27,-0 0.4,-0 0.13,-0 0.26,0 0.39,-0 0.01,-0.04 0.01,-0.06 -0.02,-0.07 -0.1,-0.02 -0.19,-0.04 -0.29,-0.06 -0.25,-0.06 -0.5,-0.11 -0.74,-0.17 -0.1,-0.02 -0.17,-0.07 -0.19,-0.18 -0.01,-0.03 -0,-0.07 -0,-0.1 -0,-0.06 0,-0.13 -0,-0.19 -0.01,-0.13 -0.12,-0.2 -0.23,-0.15 -0.07,0.03 -0.09,0.09 -0.09,0.16 0,0.06 0,0.13 0,0.19 -0,0.07 -0,0.17 -0,0.24 -0.05,0.05 -0.1,0.03 -0.15,0.03 -0.5,0 -1,0 -1.5,0l-0.16 0c-0.04,0.06 -0.02,0.1 0.02,0.13 0.09,0.06 0.2,0.11 0.31,0.12 0.11,0.02 0.23,0.03 0.35,0.03 0.16,0.01 0.31,-0 0.47,0 0.07,0 0.13,0.01 0.19,0.01z"/>
   <path class="fil2" d="M16.97 9.15c0.19,0.04 0.39,-0.01 0.58,0.03 0.02,0.13 0.1,1 0.01,1.24 -0.03,0.08 -0.03,0.18 -0.4,0.3 -0.21,0.07 -0.43,0.04 -0.65,0.02 -0.1,-0.01 -0.21,-0.03 -0.31,-0.05 -0.2,-0.03 -0.38,-0.21 -0.38,-0.46 -0,-0.16 -0,-0.32 -0,-0.48 0,-0.16 0,-0.32 0,-0.48 0,-0.03 0.01,-0.05 0.01,-0.09 0.19,-0.03 0.39,0 0.59,-0.02 0,-0.05 0.01,-0.09 0.01,-0.13 0,-0.19 -0,-0.38 0,-0.57 0,-0.05 0.01,-0.11 0.02,-0.16 0.03,-0.11 0.1,-0.17 0.22,-0.17 0.02,-0 0.04,-0 0.07,0 0.09,0.01 0.14,0.04 0.16,0.13 0.02,0.06 0.02,0.12 0.02,0.18 0.01,0.22 0.02,0.43 0.04,0.65 0,0.02 0.01,0.04 0.01,0.07z"/>
   <path class="fil2" d="M4.38 10.46c-0.01,-0.42 -0,-0.84 -0,-1.26 0.04,-0.01 0.08,-0.02 0.12,-0.02 0.11,-0 0.22,-0 0.33,-0 0.04,-0 0.08,-0 0.12,-0.01 0.04,-0.07 0.03,-0.14 0.04,-0.21 0.01,-0.19 0.02,-0.39 0.03,-0.58 0,-0.04 0,-0.08 0.01,-0.12 0.03,-0.12 0.12,-0.18 0.24,-0.13 0.11,0.04 0.23,0.15 0.22,0.28 -0,0.18 0,0.35 0,0.53 0,0.07 0,0.13 0,0.2 0.2,0.03 0.4,-0 0.59,0.02 0.01,0.03 0.02,0.06 0.02,0.09 0,0.28 0.01,0.55 0.01,0.83 -0,0.09 -0.02,0.18 -0.02,0.26 -0.55,0.54 -1.19,0.46 -1.71,0.1z"/>
   <path class="fil2" d="M14.1 14.01l0.04 -0.01c0.05,-0.02 0.08,-0.07 0.06,-0.13 -0.04,-0.1 -0.09,-0.19 -0.14,-0.28 -0.06,-0.13 -0.12,-0.25 -0.18,-0.37 -0.06,-0.12 -0.12,-0.24 -0.18,-0.36 -0.05,-0.1 -0.1,-0.2 -0.15,-0.3 -0.02,-0.05 -0,-0.11 0.04,-0.13 0,0 0,-0 0,-0 0.03,-0.01 0.07,-0.03 0.11,-0.04 0.05,-0.02 0.08,-0.07 0.06,-0.12 -0,-0.01 -0.01,-0.02 -0.01,-0.02 -0.08,-0.16 -0.17,-0.32 -0.25,-0.49 -0.09,-0.17 -0.17,-0.35 -0.25,-0.52 -0.03,-0.08 -0.05,-0.16 -0.08,-0.24 -0.01,-0.02 -0,-0.04 -0,-0.07 0.1,0.04 0.16,0.1 0.22,0.17 0.11,0.14 0.21,0.27 0.3,0.42 0.2,0.32 0.37,0.66 0.52,1 0.19,0.44 0.36,0.88 0.47,1.35 0.03,0.13 0.04,0.27 0.06,0.41 0,0.02 0,0.04 0,0.07 -0,0.04 -0.03,0.08 -0.07,0.09 -0.03,0.01 -0.07,0.02 -0.1,0.02 -0.11,0.01 -0.22,0.01 -0.33,0.01 -0.08,0 -0.14,-0.04 -0.16,-0.12 -0.02,-0.07 -0.03,-0.14 -0.04,-0.21 -0.01,-0.05 0.02,-0.09 0.06,-0.11z"/>
   <path class="fil2" d="M8.64 11c0.01,0.17 0.01,0.32 -0.06,0.46 -0.12,0.24 -0.25,0.48 -0.38,0.72 -0.03,0.05 -0.05,0.11 -0.08,0.17 -0,0 -0,0 0,0l0.29 0.11c0,0 0,0 0,0 -0.12,0.26 -0.25,0.5 -0.36,0.75 -0.12,0.24 -0.24,0.48 -0.36,0.74 -0,0 0,0 0,0l0.23 0.08c0,0 0,0 0,0 -0.02,0.14 -0.06,0.27 -0.11,0.39 -0,0 -0,0 -0,0 -0.13,0.02 -0.44,0.03 -0.61,0 -0,0 -0,-0 -0,-0 -0.04,-0.16 -0.04,-0.31 0.01,-0.47 0.13,-0.45 0.29,-0.88 0.48,-1.31 0.22,-0.51 0.49,-1 0.78,-1.47 0.02,-0.03 0.04,-0.07 0.07,-0.09l0.11 -0.1z"/>
   <path class="fil2" d="M17.51 8.34c0.49,-0.08 0.99,-0.1 1.49,-0.1 0.5,0 0.99,0.02 1.49,0.1 -0.49,0.08 -0.99,0.1 -1.49,0.1 -0.5,-0 -0.99,-0.02 -1.49,-0.1z"/>
   <path class="fil2" d="M15.46 7.51c0.49,-0.08 0.99,-0.1 1.49,-0.1 0.5,0 0.99,0.02 1.49,0.1 -0.49,0.08 -0.99,0.1 -1.49,0.1 -0.5,-0 -0.99,-0.02 -1.49,-0.1z"/>
   <path class="fil2" d="M11.21 7.45c0.49,-0.08 0.99,-0.1 1.49,-0.1 0.5,0 0.99,0.02 1.49,0.1 -0.49,0.08 -0.99,0.1 -1.49,0.1 -0.5,-0 -0.99,-0.02 -1.49,-0.1z"/>
   <path class="fil2" d="M7.52 7.45c0.49,-0.08 0.99,-0.1 1.48,-0.1 0.5,0 0.99,0.02 1.49,0.1 -0.49,0.08 -0.99,0.1 -1.49,0.1 -0.5,-0 -0.99,-0.02 -1.48,-0.1z"/>
   <path class="fil2" d="M3.63 7.45c0.49,-0.08 0.99,-0.1 1.49,-0.1 0.5,0 0.99,0.02 1.49,0.1 -0.49,0.08 -0.99,0.1 -1.49,0.1 -0.5,-0 -0.99,-0.02 -1.49,-0.1z"/>
   <path class="fil2" d="M1.31 8.31c0.49,-0.08 0.99,-0.09 1.49,-0.1 0.5,0 0.99,0.02 1.49,0.1 -0.49,0.08 -0.99,0.1 -1.49,0.1 -0.5,-0 -0.99,-0.02 -1.49,-0.1z"/>
  </g>
 </g>
</svg>
